<svg xmlns="http://www.w3.org/2000/svg" viewBox="0 0 200 200" width="200" height="200">
  <!-- Mammoth body -->
  <ellipse cx="100" cy="120" rx="70" ry="60" fill="#2E7D32" />
  
  <!-- Head -->
  <circle cx="100" cy="70" r="40" fill="#2E7D32" />
  
  <!-- Tusks -->
  <path d="M70 80 Q 50 100 40 130" stroke="#f5f5f5" stroke-width="10" fill="none" />
  <path d="M130 80 Q 150 100 160 130" stroke="#f5f5f5" stroke-width="10" fill="none" />
  
  <!-- Trunk -->
  <path d="M100 90 Q 110 110 100 130 Q 90 150 100 170" stroke="#2E7D32" stroke-width="15" fill="none" />
  
  <!-- Eyes -->
  <circle cx="80" cy="65" r="8" fill="white" />
  <circle cx="120" cy="65" r="8" fill="white" />
  
  <!-- Pupils - blinking animation -->
  <circle cx="80" cy="65" r="4" fill="#333">
    <animate attributeName="ry" values="4;1;4" dur="2.5s" repeatCount="indefinite" />
  </circle>
  <circle cx="120" cy="65" r="4" fill="#333">
    <animate attributeName="ry" values="4;1;4" dur="2.5s" repeatCount="indefinite" />
  </circle>
  
  <!-- Ears -->
  <ellipse cx="60" cy="60" rx="15" ry="20" fill="#2E7D32" />
  <ellipse cx="140" cy="60" rx="15" ry="20" fill="#2E7D32" />
  
  <!-- Verification checkmark -->
  <circle cx="140" cy="40" r="15" fill="#4CAF50" />
  <path d="M132 40 L138 46 L148 34" stroke="white" stroke-width="3" fill="none" />
  
  <!-- Review stars -->
  <path d="M40 40 L44 48 L52 50 L46 56 L48 64 L40 60 L32 64 L34 56 L28 50 L36 48 Z" fill="#FFD700">
    <animate attributeName="opacity" values="1;0.5;1" dur="3s" repeatCount="indefinite" />
  </path>
</svg> 