<svg xmlns="http://www.w3.org/2000/svg" viewBox="0 0 200 200" width="200" height="200">
  <!-- Mammoth body -->
  <ellipse cx="100" cy="120" rx="70" ry="60" fill="#1565C0" />
  
  <!-- Head -->
  <circle cx="100" cy="70" r="40" fill="#1565C0" />
  
  <!-- Tusks -->
  <path d="M70 80 Q 50 100 40 130" stroke="#f5f5f5" stroke-width="10" fill="none" />
  <path d="M130 80 Q 150 100 160 130" stroke="#f5f5f5" stroke-width="10" fill="none" />
  
  <!-- Trunk -->
  <path d="M100 90 Q 110 110 100 130 Q 90 150 100 170" stroke="#1565C0" stroke-width="15" fill="none" />
  
  <!-- Eyes -->
  <circle cx="80" cy="65" r="8" fill="white" />
  <circle cx="120" cy="65" r="8" fill="white" />
  
  <!-- Pupils - blinking animation -->
  <circle cx="80" cy="65" r="4" fill="#333">
    <animate attributeName="ry" values="4;1;4" dur="2.5s" repeatCount="indefinite" />
  </circle>
  <circle cx="120" cy="65" r="4" fill="#333">
    <animate attributeName="ry" values="4;1;4" dur="2.5s" repeatCount="indefinite" />
  </circle>
  
  <!-- Ears -->
  <ellipse cx="60" cy="60" rx="15" ry="20" fill="#1565C0" />
  <ellipse cx="140" cy="60" rx="15" ry="20" fill="#1565C0" />
  
  <!-- Ethereum symbol -->
  <path d="M40 40 L50 20 L60 40 L50 45 Z" fill="#64B5F6">
    <animate attributeName="opacity" values="1;0.7;1" dur="2s" repeatCount="indefinite" />
  </path>
  
  <!-- Friendly wave - animated hand -->
  <path d="M160 50 Q 165 45 160 40 Q 155 35 160 30" stroke="#64B5F6" stroke-width="3" fill="none">
    <animate attributeName="d" 
             values="M160 50 Q 165 45 160 40 Q 155 35 160 30;
                     M160 40 Q 165 45 160 50 Q 155 55 160 60;
                     M160 50 Q 165 45 160 40 Q 155 35 160 30"
             dur="1.5s" 
             repeatCount="indefinite" />
  </path>
</svg> 