<svg xmlns="http://www.w3.org/2000/svg" viewBox="0 0 200 200" width="200" height="200">
  <!-- Mammoth body -->
  <ellipse cx="100" cy="120" rx="70" ry="60" fill="#8a5fb9" />
  
  <!-- Head -->
  <circle cx="100" cy="70" r="40" fill="#8a5fb9" />
  
  <!-- Tusks -->
  <path d="M70 80 Q 50 100 40 130" stroke="#f5f5f5" stroke-width="10" fill="none" />
  <path d="M130 80 Q 150 100 160 130" stroke="#f5f5f5" stroke-width="10" fill="none" />
  
  <!-- Trunk -->
  <path d="M100 90 Q 110 110 100 130 Q 90 150 100 170" stroke="#8a5fb9" stroke-width="15" fill="none" />
  
  <!-- Eyes -->
  <circle cx="80" cy="65" r="8" fill="white" />
  <circle cx="120" cy="65" r="8" fill="white" />
  
  <!-- Pupils - blinking animation -->
  <circle cx="80" cy="65" r="4" fill="#333">
    <animate attributeName="ry" values="4;1;4" dur="3.5s" repeatCount="indefinite" />
  </circle>
  <circle cx="120" cy="65" r="4" fill="#333">
    <animate attributeName="ry" values="4;1;4" dur="3.5s" repeatCount="indefinite" />
  </circle>
  
  <!-- Ears -->
  <ellipse cx="60" cy="60" rx="15" ry="20" fill="#8a5fb9" />
  <ellipse cx="140" cy="60" rx="15" ry="20" fill="#8a5fb9" />
  
  <!-- Crown/Halo - representing revival -->
  <circle cx="100" cy="30" r="20" fill="none" stroke="#ffd700" stroke-width="3">
    <animate attributeName="opacity" values="0.7;1;0.7" dur="3s" repeatCount="indefinite" />
  </circle>
  
  <!-- Sparkles - representing new life -->
  <path d="M40 50 L45 55 L40 60 L35 55 Z" fill="#ffd700">
    <animate attributeName="opacity" values="0;1;0" dur="2s" repeatCount="indefinite" />
  </path>
  <path d="M160 50 L165 55 L160 60 L155 55 Z" fill="#ffd700">
    <animate attributeName="opacity" values="0;1;0" dur="2s" repeatCount="indefinite" begin="1s" />
  </path>
  <path d="M100 15 L105 20 L100 25 L95 20 Z" fill="#ffd700">
    <animate attributeName="opacity" values="0;1;0" dur="2s" repeatCount="indefinite" begin="0.5s" />
  </path>
  
  <!-- Network connections - representing community -->
  <line x1="50" y1="100" x2="70" y2="120" stroke="#ffd700" stroke-width="1">
    <animate attributeName="opacity" values="0.3;0.8;0.3" dur="4s" repeatCount="indefinite" />
  </line>
  <line x1="150" y1="100" x2="130" y2="120" stroke="#ffd700" stroke-width="1">
    <animate attributeName="opacity" values="0.3;0.8;0.3" dur="4s" repeatCount="indefinite" begin="1s" />
  </line>
  <line x1="90" y1="150" x2="110" y2="150" stroke="#ffd700" stroke-width="1">
    <animate attributeName="opacity" values="0.3;0.8;0.3" dur="4s" repeatCount="indefinite" begin="2s" />
  </line>
</svg> 