<svg xmlns="http://www.w3.org/2000/svg" viewBox="0 0 200 200" width="200" height="200">
  <!-- Mammoth body -->
  <ellipse cx="100" cy="120" rx="70" ry="60" fill="#8B4513" />
  
  <!-- Head -->
  <circle cx="100" cy="70" r="40" fill="#8B4513" />
  
  <!-- Tusks -->
  <path d="M70 80 Q 50 100 40 130" stroke="#f5f5f5" stroke-width="10" fill="none" />
  <path d="M130 80 Q 150 100 160 130" stroke="#f5f5f5" stroke-width="10" fill="none" />
  
  <!-- Trunk -->
  <path d="M100 90 Q 110 110 100 130 Q 90 150 100 170" stroke="#8B4513" stroke-width="15" fill="none" />
  
  <!-- Eyes -->
  <circle cx="80" cy="65" r="8" fill="white" />
  <circle cx="120" cy="65" r="8" fill="white" />
  
  <!-- Pupils - blinking animation -->
  <circle cx="80" cy="65" r="4" fill="#333">
    <animate attributeName="ry" values="4;1;4" dur="2.5s" repeatCount="indefinite" />
  </circle>
  <circle cx="120" cy="65" r="4" fill="#333">
    <animate attributeName="ry" values="4;1;4" dur="2.5s" repeatCount="indefinite" />
  </circle>
  
  <!-- Ears -->
  <ellipse cx="60" cy="60" rx="15" ry="20" fill="#8B4513" />
  <ellipse cx="140" cy="60" rx="15" ry="20" fill="#8B4513" />
  
  <!-- Glasses -->
  <circle cx="80" cy="65" r="12" stroke="#FFD700" stroke-width="3" fill="none" />
  <circle cx="120" cy="65" r="12" stroke="#FFD700" stroke-width="3" fill="none" />
  <path d="M92 65 L108 65" stroke="#FFD700" stroke-width="3" fill="none" />
  <path d="M68 65 L60 60" stroke="#FFD700" stroke-width="3" fill="none" />
  
  <!-- Wise smile -->
  <path d="M85 90 Q 100 100 115 90" stroke="#333" stroke-width="3" fill="none" />
</svg> 